<?xml version="1.0" encoding="UTF-8"?>
<!DOCTYPE svg
PUBLIC "-//W3C//DTD SVG 1.1//EN"
       "http://www.w3.org/Graphics/SVG/1.1/DTD/svg11.dtd">
<svg viewBox="131 31 835 475" width="704px" height="444px" xmlns="http://www.w3.org/2000/svg" version="1.1">
   <line x1="147" y1="435" x2="137" y2="435" style="stroke:#0b0;stroke-width:1;"/>
   <line x1="136" y1="98" x2="146" y2="98" style="stroke:#0b0;stroke-width:1;"/>
   <line x1="137" y1="435" x2="136" y2="98" style="stroke:#0b0;stroke-width:1;"/>
   <line x1="139.5" y1="435" x2="143.03553390593" y2="438.53553390593" style="stroke:#0b0;stroke-width:2;"/>
   <line x1="139.5" y1="435" x2="143.03553390593" y2="431.46446609407" style="stroke:#0b0;stroke-width:2;"/>
   <line x1="141" y1="98" x2="137.46446609407" y2="101.53553390593" style="stroke:#0b0;stroke-width:2;"/>
   <line x1="141" y1="98" x2="137.46446609407" y2="94.464466094067" style="stroke:#0b0;stroke-width:2;"/>
   <line x1="714" y1="430" x2="704" y2="430" style="stroke:#0bf;stroke-width:1;"/>
   <line x1="290" y1="315" x2="280" y2="315" style="stroke:#0bf;stroke-width:1;"/>
   <line x1="704" y1="430" x2="290" y2="315" style="stroke:#0bf;stroke-width:1;"/>
   <line x1="706.5" y1="430" x2="710.03553390593" y2="433.53553390593" style="stroke:#0bf;stroke-width:2;"/>
   <line x1="706.5" y1="430" x2="710.03553390593" y2="426.46446609407" style="stroke:#0bf;stroke-width:2;"/>
   <line x1="285" y1="315" x2="288.53553390593" y2="318.53553390593" style="stroke:#0bf;stroke-width:2;"/>
   <line x1="285" y1="315" x2="288.53553390593" y2="311.46446609407" style="stroke:#0bf;stroke-width:2;"/>
   <line x1="714" y1="450" x2="704" y2="450" style="stroke:#0b0;stroke-width:1;"/>
   <line x1="234" y1="98" x2="224" y2="98" style="stroke:#0b0;stroke-width:1;"/>
   <line x1="704" y1="450" x2="234" y2="98" style="stroke:#0b0;stroke-width:1;"/>
   <line x1="706.5" y1="450" x2="710.03553390593" y2="453.53553390593" style="stroke:#0b0;stroke-width:2;"/>
   <line x1="706.5" y1="450" x2="710.03553390593" y2="446.46446609407" style="stroke:#0b0;stroke-width:2;"/>
   <line x1="229" y1="98" x2="232.53553390593" y2="101.53553390593" style="stroke:#0b0;stroke-width:2;"/>
   <line x1="229" y1="98" x2="232.53553390593" y2="94.464466094067" style="stroke:#0b0;stroke-width:2;"/>
   <line x1="712" y1="96" x2="702" y2="96" style="stroke:#cb0;stroke-width:1;"/>
   <line x1="290" y1="315" x2="280" y2="315" style="stroke:#cb0;stroke-width:1;"/>
   <line x1="702" y1="96" x2="290" y2="315" style="stroke:#cb0;stroke-width:1;"/>
   <line x1="704.5" y1="96" x2="708.03553390593" y2="99.535533905933" style="stroke:#cb0;stroke-width:2;"/>
   <line x1="704.5" y1="96" x2="708.03553390593" y2="92.464466094067" style="stroke:#cb0;stroke-width:2;"/>
   <line x1="285" y1="315" x2="288.53553390593" y2="318.53553390593" style="stroke:#cb0;stroke-width:2;"/>
   <line x1="285" y1="315" x2="288.53553390593" y2="311.46446609407" style="stroke:#cb0;stroke-width:2;"/>
   <line x1="712" y1="116" x2="702" y2="116" style="stroke:#bbb;stroke-width:1;"/>
   <line x1="234" y1="98" x2="224" y2="98" style="stroke:#bbb;stroke-width:1;"/>
   <line x1="702" y1="116" x2="234" y2="98" style="stroke:#bbb;stroke-width:1;"/>
   <line x1="704.5" y1="116" x2="708.03553390593" y2="119.53553390593" style="stroke:#bbb;stroke-width:2;"/>
   <line x1="704.5" y1="116" x2="708.03553390593" y2="112.46446609407" style="stroke:#bbb;stroke-width:2;"/>
   <line x1="229" y1="98" x2="232.53553390593" y2="101.53553390593" style="stroke:#bbb;stroke-width:2;"/>
   <line x1="229" y1="98" x2="232.53553390593" y2="94.464466094067" style="stroke:#bbb;stroke-width:2;"/>
   <line x1="714" y1="242" x2="704" y2="242" style="stroke:#333;stroke-width:1;"/>
   <line x1="290" y1="315" x2="280" y2="315" style="stroke:#333;stroke-width:1;"/>
   <line x1="704" y1="242" x2="290" y2="315" style="stroke:#333;stroke-width:1;"/>
   <line x1="706.5" y1="242" x2="710.03553390593" y2="245.53553390593" style="stroke:#333;stroke-width:2;"/>
   <line x1="706.5" y1="242" x2="710.03553390593" y2="238.46446609407" style="stroke:#333;stroke-width:2;"/>
   <line x1="285" y1="315" x2="288.53553390593" y2="318.53553390593" style="stroke:#333;stroke-width:2;"/>
   <line x1="285" y1="315" x2="288.53553390593" y2="311.46446609407" style="stroke:#333;stroke-width:2;"/>
   <line x1="714" y1="262" x2="704" y2="262" style="stroke:#b0b;stroke-width:1;"/>
   <line x1="234" y1="98" x2="224" y2="98" style="stroke:#b0b;stroke-width:1;"/>
   <line x1="704" y1="262" x2="234" y2="98" style="stroke:#b0b;stroke-width:1;"/>
   <line x1="706.5" y1="262" x2="710.03553390593" y2="265.53553390593" style="stroke:#b0b;stroke-width:2;"/>
   <line x1="706.5" y1="262" x2="710.03553390593" y2="258.46446609407" style="stroke:#b0b;stroke-width:2;"/>
   <line x1="229" y1="98" x2="232.53553390593" y2="101.53553390593" style="stroke:#b0b;stroke-width:2;"/>
   <line x1="229" y1="98" x2="232.53553390593" y2="94.464466094067" style="stroke:#b0b;stroke-width:2;"/>
   <rect width="133" height="20" x="147" y="285" style="fill:#007;stroke:black;"/>
   <text width="133" height="20" x="152" y="299" style="fill:#fff;" font-family="Arial" font-size="16px"> fotos</text>
   <rect width="133" height="20" x="147" y="305" style="fill:#aea;stroke:black;"/>
   <text width="133" height="20" x="152" y="319" style="fill:black;" font-family="Arial" font-size="16px">id</text>
   <rect width="133" height="20" x="147" y="325" style="fill:none;stroke:black;"/>
   <text width="133" height="20" x="152" y="339" style="fill:black;" font-family="Arial" font-size="16px">url_foto</text>
   <rect width="133" height="20" x="147" y="345" style="fill:none;stroke:black;"/>
   <text width="133" height="20" x="152" y="359" style="fill:black;" font-family="Arial" font-size="16px">descripcion</text>
   <rect width="133" height="20" x="147" y="365" style="fill:none;stroke:black;"/>
   <text width="133" height="20" x="152" y="379" style="fill:black;" font-family="Arial" font-size="16px">estado_foto</text>
   <rect width="133" height="20" x="147" y="385" style="fill:none;stroke:black;"/>
   <text width="133" height="20" x="152" y="399" style="fill:black;" font-family="Arial" font-size="16px">fecha_foto</text>
   <rect width="133" height="20" x="147" y="405" style="fill:none;stroke:black;"/>
   <text width="133" height="20" x="152" y="419" style="fill:black;" font-family="Arial" font-size="16px">fecha_foto_subida</text>
   <rect width="133" height="20" x="147" y="425" style="fill:none;stroke:black;"/>
   <text width="133" height="20" x="152" y="439" style="fill:black;" font-family="Arial" font-size="16px">usuario_id</text>
   <rect width="106" height="20" x="714" y="340" style="fill:#007;stroke:black;"/>
   <text width="106" height="20" x="719" y="354" style="fill:#fff;" font-family="Arial" font-size="16px"> historias</text>
   <rect width="106" height="20" x="714" y="360" style="fill:#aea;stroke:black;"/>
   <text width="106" height="20" x="719" y="374" style="fill:black;" font-family="Arial" font-size="16px">id</text>
   <rect width="106" height="20" x="714" y="380" style="fill:none;stroke:black;"/>
   <text width="106" height="20" x="719" y="394" style="fill:black;" font-family="Arial" font-size="16px">historia</text>
   <rect width="106" height="20" x="714" y="400" style="fill:none;stroke:black;"/>
   <text width="106" height="20" x="719" y="414" style="fill:black;" font-family="Arial" font-size="16px">fecha_historia</text>
   <rect width="106" height="20" x="714" y="420" style="fill:none;stroke:black;"/>
   <text width="106" height="20" x="719" y="434" style="fill:black;" font-family="Arial" font-size="16px">foto_id</text>
   <rect width="106" height="20" x="714" y="440" style="fill:none;stroke:black;"/>
   <text width="106" height="20" x="719" y="454" style="fill:black;" font-family="Arial" font-size="16px">usuario_id</text>
   <rect width="80" height="20" x="712" y="46" style="fill:#007;stroke:black;"/>
   <text width="80" height="20" x="717" y="60" style="fill:#fff;" font-family="Arial" font-size="16px"> megusta</text>
   <rect width="80" height="20" x="712" y="66" style="fill:#aea;stroke:black;"/>
   <text width="80" height="20" x="717" y="80" style="fill:black;" font-family="Arial" font-size="16px">id</text>
   <rect width="80" height="20" x="712" y="86" style="fill:none;stroke:black;"/>
   <text width="80" height="20" x="717" y="100" style="fill:black;" font-family="Arial" font-size="16px">foto_id</text>
   <rect width="80" height="20" x="712" y="106" style="fill:none;stroke:black;"/>
   <text width="80" height="20" x="717" y="120" style="fill:black;" font-family="Arial" font-size="16px">usuario_id</text>
   <rect width="80" height="20" x="714" y="192" style="fill:#007;stroke:black;"/>
   <text width="80" height="20" x="719" y="206" style="fill:#fff;" font-family="Arial" font-size="16px"> quienes</text>
   <rect width="80" height="20" x="714" y="212" style="fill:#aea;stroke:black;"/>
   <text width="80" height="20" x="719" y="226" style="fill:black;" font-family="Arial" font-size="16px">id</text>
   <rect width="80" height="20" x="714" y="232" style="fill:none;stroke:black;"/>
   <text width="80" height="20" x="719" y="246" style="fill:black;" font-family="Arial" font-size="16px">foto_id</text>
   <rect width="80" height="20" x="714" y="252" style="fill:none;stroke:black;"/>
   <text width="80" height="20" x="719" y="266" style="fill:black;" font-family="Arial" font-size="16px">usuario_id</text>
   <rect width="78" height="20" x="146" y="68" style="fill:#007;stroke:black;"/>
   <text width="78" height="20" x="151" y="82" style="fill:#fff;" font-family="Arial" font-size="16px"> usuarios</text>
   <rect width="78" height="20" x="146" y="88" style="fill:#aea;stroke:black;"/>
   <text width="78" height="20" x="151" y="102" style="fill:black;" font-family="Arial" font-size="16px">id</text>
   <rect width="78" height="20" x="146" y="108" style="fill:none;stroke:black;"/>
   <text width="78" height="20" x="151" y="122" style="fill:black;" font-family="Arial" font-size="16px">nombre</text>
   <rect width="78" height="20" x="146" y="128" style="fill:none;stroke:black;"/>
   <text width="78" height="20" x="151" y="142" style="fill:black;" font-family="Arial" font-size="16px">email</text>
   <rect width="78" height="20" x="146" y="148" style="fill:none;stroke:black;"/>
   <text width="78" height="20" x="151" y="162" style="fill:black;" font-family="Arial" font-size="16px">password</text>
   <rect width="78" height="20" x="146" y="168" style="fill:none;stroke:black;"/>
   <text width="78" height="20" x="151" y="182" style="fill:black;" font-family="Arial" font-size="16px">perfil</text>
</svg>
